<svg width="1024" height="1024" viewBox="0 0 1024 1024" fill="none" xmlns="http://www.w3.org/2000/svg">
<rect width="1024" height="1024" fill="url(#paint0_linear_234_6460)"/>
<g filter="url(#filter0_d_234_6460)">
<path d="M739.865 327.006H159.446C158.894 327.006 158.446 327.453 158.446 328.006V695.994C158.446 696.547 158.894 696.994 159.446 696.994H739.865C740.148 696.994 740.417 696.875 740.607 696.665L907.087 512.671C907.432 512.29 907.432 511.71 907.087 511.329L740.607 327.335C740.417 327.125 740.148 327.006 739.865 327.006Z" fill="url(#paint1_linear_234_6460)"/>
<path d="M258.698 448.573H691.362M159.446 696.994H739.865C740.148 696.994 740.417 696.875 740.607 696.665L907.087 512.671C907.432 512.29 907.432 511.71 907.087 511.329L740.607 327.335C740.417 327.125 740.148 327.006 739.865 327.006H159.446C158.894 327.006 158.446 327.453 158.446 328.006V695.994C158.446 696.546 158.894 696.994 159.446 696.994Z" stroke="white" stroke-width="50"/>
</g>
<defs>
<filter id="filter0_d_234_6460" x="114.446" y="294.006" width="838.899" height="459.988" filterUnits="userSpaceOnUse" color-interpolation-filters="sRGB">
<feFlood flood-opacity="0" result="BackgroundImageFix"/>
<feColorMatrix in="SourceAlpha" type="matrix" values="0 0 0 0 0 0 0 0 0 0 0 0 0 0 0 0 0 0 127 0" result="hardAlpha"/>
<feOffset dx="1" dy="12"/>
<feGaussianBlur stdDeviation="10"/>
<feComposite in2="hardAlpha" operator="out"/>
<feColorMatrix type="matrix" values="0 0 0 0 0 0 0 0 0 0 0 0 0 0 0 0 0 0 0.25 0"/>
<feBlend mode="normal" in2="BackgroundImageFix" result="effect1_dropShadow_234_6460"/>
<feBlend mode="normal" in="SourceGraphic" in2="effect1_dropShadow_234_6460" result="shape"/>
</filter>
<linearGradient id="paint0_linear_234_6460" x1="512" y1="0" x2="512" y2="1024" gradientUnits="userSpaceOnUse">
<stop stop-color="#75CEFA"/>
<stop offset="1" stop-color="#4CADE6"/>
</linearGradient>
<linearGradient id="paint1_linear_234_6460" x1="533.07" y1="327.006" x2="533.07" y2="696.994" gradientUnits="userSpaceOnUse">
<stop stop-color="#75CEFA"/>
<stop offset="1" stop-color="#4CADE6"/>
</linearGradient>
</defs>
</svg>
