<svg width="665" height="324" viewBox="0 0 665 324" fill="none" xmlns="http://www.w3.org/2000/svg">
<g filter="url(#filter0_d_255_6503)">
<path d="M187.97 30.8582H277.733M167.178 44.0555V82.0719C167.178 82.198 167.228 82.319 167.316 82.4081C167.405 82.4973 167.525 82.5474 167.651 82.5474H287.7C287.766 82.549 287.832 82.5366 287.893 82.511C287.954 82.4854 288.009 82.4472 288.055 82.3988L322.363 44.4121C322.438 44.3256 322.479 44.2148 322.479 44.1C322.479 43.9853 322.438 43.8745 322.363 43.788L287.996 5.74183C287.95 5.69347 287.895 5.65526 287.834 5.62966C287.773 5.60406 287.707 5.59164 287.641 5.59321H167.651C167.525 5.59321 167.405 5.64332 167.316 5.7325C167.228 5.82169 167.178 5.94266 167.178 6.06879V44.0555Z" stroke="white" stroke-width="8" shape-rendering="crispEdges"/>
</g>
<g filter="url(#filter1_d_255_6503)">
<path d="M112.981 144.453C112.804 143.938 113.306 142.66 114.489 140.619C115.672 138.578 116.944 135.942 118.305 132.712C119.933 129.226 121.375 125.654 122.623 122.012C124.103 117.985 125.096 113.793 125.58 109.528C126.258 105.305 126.258 101 125.58 96.7764C124.85 92.3422 123.065 88.151 120.375 84.56C119.415 83.4979 118.24 82.654 116.929 82.085C115.618 81.516 114.202 81.235 112.774 81.2607C108.993 80.9911 105.197 81.5071 101.624 82.7766C97.0855 84.2081 92.7435 86.2052 88.6991 88.7213C84.2963 91.2834 80.2153 94.3669 76.5433 97.9059C72.8386 101.285 69.5963 105.143 66.9016 109.379C64.4678 113.308 62.9885 117.758 62.5835 122.368C62.2433 125.675 62.3327 129.012 62.8497 132.296C63.4705 135.164 64.3211 137.977 65.3932 140.708C66.3364 143.114 67.4127 145.466 68.617 147.752C69.8 149.952 70.8943 151.933 71.8999 153.697C73.66 156.597 75.7875 159.255 78.2292 161.603C81.1079 164.497 84.2331 167.806 87.6048 171.531C91.2324 175.39 94.6203 179.47 97.7493 183.747C101.272 188.582 104.248 193.796 106.622 199.293C109.268 205.468 111.059 211.979 111.946 218.643C112.958 226.543 112.869 234.547 111.68 242.422C110.321 253.257 107.329 263.82 102.807 273.75C99.436 281.22 94.9035 288.103 89.3793 294.141C85.332 298.727 80.4152 302.455 74.9167 305.109C71.0543 307.101 66.9752 308.637 62.7609 309.686C59.7379 310.266 56.6877 310.693 53.6219 310.964C49.9935 311.466 46.3082 311.375 42.7084 310.697C38.7412 310.113 34.8892 308.91 31.2921 307.13C27.2314 305.292 23.6707 302.498 20.9109 298.986C17.4303 294.811 14.6166 290.118 12.5705 285.075C10.5723 280.323 9.20981 275.325 8.51856 270.213C7.5259 264.508 7.96299 258.645 9.79032 253.152C11.1025 251.664 12.5479 250.301 14.1084 249.08C15.5496 247.975 17.0722 246.981 18.6631 246.107C20.3834 245.075 22.1609 244.142 23.9868 243.313C26.1754 242.64 28.3739 242.045 30.5822 241.53C32.5345 241.181 34.5145 241.012 36.4974 241.025C38.56 240.838 40.6383 241.102 42.5901 241.798C40.3718 244.192 38.5719 246.945 37.2664 249.942C36.6819 251.094 36.1779 252.286 35.758 253.509C35.0409 257.288 34.7827 261.14 34.9891 264.982C35.2303 269.403 36.0967 273.766 37.5622 277.941C39.1229 281.986 41.5457 285.638 44.6604 288.642C47.9709 291.787 52.3802 293.495 56.9345 293.398C69.2775 293.734 79.7573 284.055 88.3737 264.358C91.1654 258.585 92.6406 252.258 92.6918 245.84C92.8854 239.723 92.1168 233.614 90.4145 227.738C88.9687 222.147 86.8429 216.756 84.0852 211.688C81.8691 207.122 79.2353 202.774 76.218 198.698C73.1409 194.692 69.843 190.861 66.3396 187.225C62.6131 182.985 58.9358 178.407 55.3078 173.493C51.4997 168.427 48.107 163.059 45.1632 157.442C42.2121 151.515 40.2155 145.154 39.248 138.597C37.8172 129.864 38.6943 120.905 41.7915 112.619C44.8078 105.006 49.0992 97.9691 54.4797 91.8126C59.5626 86.1296 65.4526 81.2318 71.9591 77.2778C77.2117 74.0219 82.9403 71.6147 88.9357 70.1441C116.146 64.7146 133.98 69.302 142.439 83.9061C145.928 89.2286 147.968 95.3779 148.354 101.74C148.683 107.601 148.225 113.48 146.993 119.218C146.169 123.859 144.809 128.388 142.941 132.712C142.271 134.837 141.273 136.843 139.984 138.657C138.527 139.923 136.905 140.983 135.163 141.808C131.775 143.377 128.195 144.487 124.516 145.107C123.191 145.441 121.83 145.611 120.464 145.612C119.188 145.603 117.913 145.513 116.648 145.345C115.384 145.264 114.143 144.962 112.981 144.453ZM186.241 252.736C192.455 252.405 198.442 250.279 203.484 246.613C210.074 242.21 216.269 237.237 221.998 231.751C227.831 226.407 233.332 220.709 238.472 214.69C243.539 208.745 247.345 203.989 249.888 200.422C250.845 198.682 252.37 197.327 254.206 196.588C254.686 196.332 255.236 196.242 255.771 196.334C256.306 196.425 256.796 196.692 257.164 197.093C257.965 198.321 258.262 199.812 257.992 201.255C257.685 203.383 256.907 205.414 255.715 207.199C254.532 209.181 252.501 212.153 249.622 216.116C246.743 220.08 243.451 224.241 239.744 228.6C235.674 233.371 231.371 237.934 226.849 242.273C222.138 246.843 217.139 251.102 211.883 255.025C206.817 258.667 201.373 261.746 195.646 264.209C190.493 266.663 184.874 267.971 179.172 268.043C172.64 268.252 166.167 266.746 160.391 263.674C155.672 261.082 151.621 257.418 148.561 252.974C145.676 248.537 143.612 243.613 142.468 238.439C141.303 233.168 140.708 227.787 140.694 222.388C140.938 215.712 142.133 209.106 144.243 202.771C146.645 194.888 150.118 187.376 154.565 180.448C159.261 173.178 165.282 166.865 172.31 161.841C179.545 156.522 188.31 153.725 197.273 153.875C199.816 153.821 202.343 154.291 204.699 155.258C207.054 156.224 209.187 157.665 210.966 159.493C212.943 161.481 214.467 163.877 215.432 166.515C216.397 169.152 216.781 171.97 216.556 174.771C216.539 177.886 216.02 180.978 215.018 183.926C214.046 186.74 212.682 189.402 210.966 191.832C209.312 194.008 207.24 195.827 204.874 197.183C202.661 198.552 200.107 199.263 197.509 199.233C196.544 199.296 195.579 199.121 194.697 198.722C193.815 198.323 193.044 197.713 192.452 196.945C191.422 195.22 190.729 193.313 190.411 191.327C190.242 189.21 190.242 187.083 190.411 184.966C190.577 183.572 190.915 182.204 191.417 180.894C192.122 179.827 193.076 178.949 194.197 178.338L197.746 176.554C198.737 176.067 199.538 175.262 200.023 174.266C200.676 173.29 201.025 172.142 201.029 170.966C201.038 169.89 200.683 168.842 200.023 167.994C199.611 167.541 199.1 167.19 198.531 166.968C197.961 166.747 197.348 166.66 196.74 166.716C193.722 167.323 190.874 168.592 188.4 170.431C183.811 173.437 179.71 177.137 176.244 181.399C171.75 186.868 168.074 192.966 165.33 199.501C161.999 207.594 160.32 216.276 160.391 225.033C160.061 229.737 160.842 234.452 162.669 238.795C164.024 241.9 166.056 244.658 168.616 246.865C171.176 249.073 174.198 250.673 177.457 251.547C180.319 252.336 183.273 252.736 186.241 252.736ZM227.825 260.107C226.937 261.697 225.555 262.95 223.891 263.674C223.317 264.006 222.675 264.202 222.014 264.249C221.353 264.295 220.69 264.19 220.076 263.942C219.496 263.772 218.975 263.443 218.573 262.991C218.17 262.539 217.902 261.983 217.798 261.385C217.531 259.625 217.887 257.826 218.804 256.303C219.317 255.292 220.5 253.003 222.353 249.436C224.206 245.87 226.316 241.619 228.682 236.685C231.048 231.592 233.671 226.153 236.549 220.367L244.653 203.543C247.355 198.272 249.809 193.606 252.018 189.544C254.226 185.481 255.882 182.45 256.986 180.448C255.133 178.744 253.861 177.555 253.171 176.881C252.272 175.332 251.755 173.59 251.663 171.799C251.44 168.834 251.959 165.861 253.171 163.149C254.538 159.551 256.325 156.129 258.495 152.954C260.541 149.743 263.02 146.833 265.859 144.304C267.959 142.188 270.758 140.919 273.727 140.738C275.63 140.538 277.553 140.857 279.291 141.663C281.03 142.468 282.52 143.73 283.605 145.315C285.538 148.116 286.757 151.352 287.154 154.737C287.462 157.55 287.292 160.394 286.651 163.149C286.018 166.441 284.719 169.566 282.836 172.334L284.877 173.612C286.188 174.015 287.559 174.186 288.929 174.117C290.806 174.208 292.687 174.038 294.518 173.612C296.264 173.213 298.053 173.043 299.842 173.106C302.403 173.003 304.917 173.814 306.94 175.395C308.842 176.809 310.4 178.638 311.495 180.745C312.716 182.877 313.575 185.197 314.039 187.612C314.675 189.774 315.101 191.994 315.31 194.24C315.732 198.904 314.575 203.575 312.027 207.497C309.326 212.074 306.033 217.087 302.149 222.537C299.763 225.846 297.338 229.651 294.873 233.951C292.745 237.382 291.713 241.386 291.916 245.424C292.143 247.309 292.747 249.129 293.69 250.774C294.538 252.141 296.904 252.825 300.789 252.825C304.123 252.703 307.363 251.676 310.164 249.853C313.95 247.465 317.513 244.739 320.811 241.708C324.538 238.32 328.176 234.664 331.725 230.74C335.274 226.817 338.567 222.913 341.603 219.029C344.64 215.066 347.174 211.589 349.204 208.596C351.235 205.604 352.842 203.325 354.025 201.76C354.776 200.485 355.933 199.5 357.308 198.966C357.866 198.713 358.471 198.583 359.083 198.583C359.695 198.583 360.3 198.713 360.857 198.966C361.38 199.269 361.818 199.701 362.128 200.221C362.439 200.741 362.612 201.332 362.632 201.938C362.812 204.129 362.18 206.31 360.857 208.061C359.852 209.765 358.077 212.48 355.534 216.206C352.99 219.931 350.033 224.092 346.661 228.689C343.289 233.267 339.484 238.023 335.245 242.957C331.067 247.671 326.581 252.099 321.817 256.213C317.531 259.934 312.861 263.182 307.887 265.903C303.947 268.288 299.469 269.628 294.873 269.797C291.073 269.942 287.304 269.06 283.96 267.241C281.231 265.667 278.823 263.59 276.862 261.118C273.464 256.304 271.852 250.446 272.307 244.562C272.507 242.38 273.015 240.239 273.815 238.201C274.821 235.823 275.915 233.445 277.098 231.067C278.281 228.689 279.632 226.222 281.15 223.666C282.668 221.11 284.019 218.643 285.202 216.265C288.081 211.331 290.358 207.17 292.034 203.781C293.637 201.066 294.589 198.013 294.814 194.864C294.841 193.441 294.495 192.037 293.809 190.792C293.485 190.213 293.005 189.738 292.424 189.422C291.843 189.107 291.185 188.963 290.526 189.009C289.758 188.983 288.99 189.073 288.248 189.276H286.977C286.379 189.315 285.785 189.405 285.202 189.544H281.83C279.917 189.603 278.013 189.259 276.24 188.533C274.847 187.904 273.402 187.397 271.922 187.017C271.252 188.206 269.734 190.752 267.368 194.656L259.027 208.388C255.971 213.659 252.668 219.208 249.119 225.033C245.57 230.859 242.356 236.299 239.477 241.352C236.441 246.286 233.907 250.536 231.876 254.103C229.846 257.67 228.495 259.671 227.825 260.107ZM398.715 111.311C398.13 113.371 397.122 115.284 395.757 116.929C394.401 118.635 392.772 120.101 390.936 121.269C389.3 122.272 387.496 122.967 385.613 123.32C384.827 123.516 384.007 123.528 383.217 123.352C382.427 123.177 381.688 122.82 381.058 122.309C379.551 121.369 378.268 120.106 377.302 118.611C376.336 117.116 375.71 115.425 375.468 113.659C375.269 110.52 376.066 107.398 377.745 104.742C379.345 101.953 381.5 99.5247 384.075 97.6087C385.959 95.9093 388.22 94.6865 390.67 94.0419C391.475 93.8466 392.316 93.8616 393.113 94.0853C393.91 94.309 394.637 94.7341 395.225 95.32C396.613 96.4434 397.642 97.9527 398.182 99.6596C398.897 101.557 399.239 103.576 399.188 105.604C399.371 107.52 399.211 109.453 398.715 111.311ZM363.726 165.586C365.058 164.29 366.731 163.403 368.547 163.03C370.962 162.345 373.423 161.839 375.912 161.514C378.158 161.034 380.447 160.775 382.744 160.741C384.008 160.544 385.295 160.544 386.559 160.741C386.389 162.576 385.961 164.378 385.287 166.092C384.282 169.48 383.01 173.443 381.472 177.981C379.934 182.519 378.327 187.304 376.651 192.338C374.955 197.093 373.684 200.997 372.836 204.049C371.988 207.1 371.002 210.578 369.878 214.482C368.695 218.227 367.601 221.962 366.595 225.687C365.788 229.044 365.195 232.45 364.821 235.883C364.393 238.374 364.659 240.935 365.59 243.284C366.167 244.928 367.119 246.415 368.37 247.623C369.341 248.279 370.483 248.631 371.653 248.634C376.35 248.095 380.774 246.136 384.341 243.016C389.901 239.002 395.151 234.571 400.046 229.759C405.448 224.489 410.437 219.227 415.011 213.976C419.585 208.725 422.918 204.405 425.008 201.017C426.043 199.575 427.442 198.436 429.06 197.718C429.624 197.45 430.247 197.334 430.869 197.381C431.491 197.428 432.091 197.636 432.609 197.985C433.122 198.357 433.531 198.857 433.795 199.435C434.06 200.013 434.17 200.65 434.117 201.284C434.195 203.184 433.666 205.058 432.609 206.635C429.086 212.605 425.132 218.308 420.778 223.696C415.534 230.156 409.954 236.437 404.038 242.541C398.599 248.037 392.756 253.114 386.559 257.729C380.979 261.97 376.414 264.179 372.865 264.358C369.919 264.516 366.976 263.997 364.259 262.842C361.518 261.797 358.954 260.334 356.658 258.502C354.488 256.539 352.606 254.278 351.068 251.785C349.588 249.214 348.718 246.336 348.524 243.373C348.008 237.608 348.008 231.809 348.524 226.044C349.044 218.44 349.972 210.869 351.304 203.365C352.575 195.884 354.264 188.481 356.362 181.191C357.88 175.593 360.373 170.31 363.726 165.586ZM472.329 115.383C469.786 125.569 466.917 135.338 463.723 144.691C460.528 154.044 457.315 162.703 454.081 170.669C450.867 178.595 447.574 185.897 444.203 192.575C440.831 199.253 437.952 205.03 435.566 209.904C433.853 219.677 433.853 229.676 435.566 239.449C437.262 246.92 440.555 250.655 445.445 250.655C449.967 250.408 454.214 248.392 457.275 245.037C461.392 240.99 464.891 236.352 467.656 231.275C470.741 225.776 473.296 219.993 475.287 214.006C477.281 208.575 478.641 202.929 479.339 197.183C476.322 196.432 473.537 194.941 471.235 192.843C469.337 190.797 468.179 188.169 467.948 185.381C467.717 182.593 468.427 179.809 469.963 177.476C472.483 173.279 476.323 170.047 480.877 168.291C482.813 167.493 484.878 167.06 486.969 167.013C489.848 167.013 492.303 168.886 494.334 172.631C496.565 176.907 497.932 181.584 498.356 186.393C505.541 186.19 512.683 185.193 519.651 183.421C526.855 181.634 533.899 179.248 540.709 176.287C542.092 175.506 543.702 175.232 545.264 175.514C545.787 175.629 546.272 175.879 546.671 176.238C547.07 176.598 547.37 177.055 547.541 177.565C547.792 178.126 547.923 178.733 547.923 179.348C547.923 179.963 547.792 180.571 547.541 181.132C546.943 182.406 545.886 183.405 544.583 183.926C540.636 186.169 536.579 188.213 532.428 190.049C524.754 193.265 516.764 195.656 508.589 197.183C505.245 197.823 501.85 198.161 498.445 198.193C497.523 205.876 495.387 213.361 492.116 220.367C488.604 228.115 484.271 235.46 479.191 242.273C474.4 248.625 468.676 254.207 462.214 258.829C457.067 262.912 450.756 265.234 444.203 265.457C441.731 265.395 439.269 265.137 436.838 264.685C433.375 263.932 430.256 262.051 427.965 259.334C424.467 255.099 421.951 250.134 420.601 244.8C418.309 235.383 417.452 225.672 418.057 215.998C418.283 207.1 419.212 198.234 420.837 189.484C422.533 180.151 424.564 170.808 426.93 161.455C429.296 152.102 431.919 143.096 434.797 134.436C437.834 125.598 440.713 117.672 443.434 110.657C446.155 103.643 448.609 97.6979 450.798 92.8232C452.253 89.5857 454.037 86.5078 456.122 83.6386C457.531 81.8571 459.361 80.4574 461.445 79.5665C463.309 78.6013 465.301 77.9106 467.361 77.5156C469.181 77.0247 471.072 76.8538 472.95 77.0103C474.167 77.0728 475.366 77.3338 476.5 77.7831C477.505 78.4568 477.761 82.1921 477.269 88.9889C476.529 97.9342 474.874 106.779 472.329 115.383ZM636.772 208.388C631.529 216.078 625.768 223.397 619.529 230.295C613.228 237.146 606.362 243.45 599.003 249.139C592.188 254.408 584.783 258.857 576.94 262.396C570.125 265.657 562.689 267.401 555.142 267.508C550.945 267.401 546.812 266.451 542.986 264.714C538.562 262.878 534.587 260.099 531.333 256.57C527.466 252.376 524.497 247.429 522.609 242.035C520.482 235.023 519.876 227.634 520.834 220.367C521.692 212.757 523.833 205.349 527.163 198.461C530.774 190.814 535.282 183.63 540.591 177.06C545.753 170.825 551.826 165.414 558.602 161.009C564.626 156.993 571.664 154.786 578.892 154.648C585.319 154.648 589.963 156.263 592.822 159.493C594.242 161.102 595.313 162.989 595.97 165.036C596.627 167.082 596.854 169.243 596.637 171.382C596.179 176.501 594.625 181.459 592.083 185.917C589.744 190.249 586.839 194.248 583.446 197.807C580.095 201.349 576.443 204.591 572.533 207.497C568.806 210.39 565.257 213.025 561.885 215.403C558.159 217.959 554.61 220.426 551.238 222.804C547.866 225.182 544.909 227.223 542.365 228.927C542.41 232.611 543.184 236.248 544.643 239.628C545.848 242.315 547.566 244.739 549.7 246.761C551.718 248.46 554.035 249.76 556.532 250.596C559.182 251.265 561.904 251.605 564.636 251.606C571.001 251.431 577.211 249.587 582.648 246.256C589.098 242.372 595.204 237.937 600.896 232.999C606.802 227.908 612.392 222.458 617.636 216.681C622.881 211.073 627.189 206.228 630.561 202.146C631.433 200.981 632.693 200.169 634.11 199.858C634.603 199.669 635.137 199.617 635.657 199.705C636.177 199.794 636.664 200.021 637.068 200.363C637.518 200.705 637.872 201.159 638.095 201.68C638.318 202.201 638.402 202.772 638.339 203.335C638.305 205.135 637.761 206.888 636.772 208.388ZM571.882 169.153C569.188 169.388 566.625 170.423 564.518 172.126C561.368 174.653 558.633 177.662 556.414 181.043C553.365 185.408 550.816 190.104 548.813 195.042C546.274 201.08 544.486 207.409 543.489 213.887C545.461 212.361 547.659 210.836 550.085 209.31C552.51 207.784 554.876 206.001 557.183 203.959C562.967 199.804 568.092 194.793 572.385 189.098C574.828 185.874 576.479 182.116 577.206 178.13C577.701 175.794 577.344 173.357 576.2 171.264C575.723 170.568 575.074 170.008 574.317 169.638C573.561 169.268 572.722 169.101 571.882 169.153Z" fill="white"/>
</g>
<g filter="url(#filter2_d_255_6503)">
<path d="M627.615 220.575C648.969 196.558 656.517 168.302 656.014 137.003C655.334 94.3204 630.499 61.9701 596.723 37.5373C559.457 10.5781 516.217 1.86911 470.936 4.42533C425.655 6.98156 380.227 14.9772 339.619 35.635C337.549 36.6754 341.512 49.5457 339.619 50.4968C373.75 33.1383 410.867 25.1724 448.725 21.1597C487.528 17.0578 526.805 17.3253 563.184 33.0491C595.155 46.9597 627.985 72.1355 643.66 104.148C660.814 139.192 651.555 178.605 626.12 207.199C627.156 206.019 616.875 217.602 613.917 220.575H627.615Z" fill="white"/>
</g>
<path d="M605.163 244.141L615.132 235.141L624.285 225.222L632.081 215.14L622.862 210.917L614.136 220.14L603.168 231.141L605.163 244.141Z" fill="white"/>
<defs>
<filter id="filter0_d_255_6503" x="159.178" y="1.59308" width="171.301" height="92.9545" filterUnits="userSpaceOnUse" color-interpolation-filters="sRGB">
<feFlood flood-opacity="0" result="BackgroundImageFix"/>
<feColorMatrix in="SourceAlpha" type="matrix" values="0 0 0 0 0 0 0 0 0 0 0 0 0 0 0 0 0 0 127 0" result="hardAlpha"/>
<feOffset dy="4"/>
<feGaussianBlur stdDeviation="2"/>
<feComposite in2="hardAlpha" operator="out"/>
<feColorMatrix type="matrix" values="0 0 0 0 0 0 0 0 0 0 0 0 0 0 0 0 0 0 0.25 0"/>
<feBlend mode="normal" in2="BackgroundImageFix" result="effect1_dropShadow_255_6503"/>
<feBlend mode="normal" in="SourceGraphic" in2="effect1_dropShadow_255_6503" result="shape"/>
</filter>
<filter id="filter1_d_255_6503" x="0" y="63.9369" width="646.359" height="259.346" filterUnits="userSpaceOnUse" color-interpolation-filters="sRGB">
<feFlood flood-opacity="0" result="BackgroundImageFix"/>
<feColorMatrix in="SourceAlpha" type="matrix" values="0 0 0 0 0 0 0 0 0 0 0 0 0 0 0 0 0 0 127 0" result="hardAlpha"/>
<feOffset dy="4"/>
<feGaussianBlur stdDeviation="4"/>
<feComposite in2="hardAlpha" operator="out"/>
<feColorMatrix type="matrix" values="0 0 0 0 0 0 0 0 0 0 0 0 0 0 0 0 0 0 0.25 0"/>
<feBlend mode="normal" in2="BackgroundImageFix" result="effect1_dropShadow_255_6503"/>
<feBlend mode="normal" in="SourceGraphic" in2="effect1_dropShadow_255_6503" result="shape"/>
</filter>
<filter id="filter2_d_255_6503" x="331.002" y="0" width="333.035" height="232.575" filterUnits="userSpaceOnUse" color-interpolation-filters="sRGB">
<feFlood flood-opacity="0" result="BackgroundImageFix"/>
<feColorMatrix in="SourceAlpha" type="matrix" values="0 0 0 0 0 0 0 0 0 0 0 0 0 0 0 0 0 0 127 0" result="hardAlpha"/>
<feOffset dy="4"/>
<feGaussianBlur stdDeviation="4"/>
<feComposite in2="hardAlpha" operator="out"/>
<feColorMatrix type="matrix" values="0 0 0 0 0 0 0 0 0 0 0 0 0 0 0 0 0 0 0.25 0"/>
<feBlend mode="normal" in2="BackgroundImageFix" result="effect1_dropShadow_255_6503"/>
<feBlend mode="normal" in="SourceGraphic" in2="effect1_dropShadow_255_6503" result="shape"/>
</filter>
</defs>
</svg>
