<svg width="997" height="485" viewBox="0 0 997 485" fill="none" xmlns="http://www.w3.org/2000/svg">
<g filter="url(#filter0_d_255_6470)">
<path d="M281.943 46.286H416.583M250.756 66.0812V123.104C250.756 123.293 250.831 123.475 250.964 123.608C251.097 123.742 251.277 123.817 251.466 123.817H431.533C431.633 123.82 431.731 123.801 431.823 123.763C431.915 123.724 431.997 123.667 432.066 123.594L483.526 66.6162C483.639 66.4864 483.7 66.3201 483.7 66.1481C483.7 65.976 483.639 65.8098 483.526 65.68L431.977 8.61261C431.909 8.54009 431.826 8.48277 431.734 8.44437C431.643 8.40597 431.544 8.38734 431.445 8.38969H251.466C251.277 8.38969 251.097 8.46485 250.964 8.59863C250.831 8.7324 250.756 8.91385 250.756 9.10304V66.0812Z" stroke="white" stroke-width="12" shape-rendering="crispEdges"/>
</g>
<g filter="url(#filter1_d_255_6470)">
<path d="M169.466 216.673C169.2 215.9 169.954 213.983 171.729 210.921C173.503 207.86 175.411 203.907 177.452 199.062C179.895 193.832 182.057 188.475 183.929 183.012C186.15 176.972 187.639 170.685 188.365 164.287C189.381 157.952 189.381 151.495 188.365 145.16C187.27 138.509 184.591 132.222 180.557 126.836C179.117 125.243 177.355 123.977 175.388 123.124C173.422 122.27 171.297 121.849 169.156 121.887C163.485 121.483 157.791 122.257 152.431 124.161C145.624 126.308 139.111 129.304 133.045 133.078C126.441 136.921 120.319 141.546 114.812 146.854C109.255 151.923 104.392 157.71 100.35 164.064C96.699 169.957 94.4801 176.632 93.8726 183.547C93.3623 188.507 93.4965 193.513 94.2718 198.438C95.2031 202.74 96.479 206.96 98.087 211.055C99.5018 214.665 101.116 218.193 102.923 221.622C104.697 224.921 106.338 227.893 107.847 230.538C110.487 234.888 113.678 238.874 117.34 242.398C121.658 246.737 126.346 251.701 131.403 257.289C136.845 263.077 141.926 269.197 146.62 275.613C151.903 282.865 156.367 290.685 159.928 298.93C163.897 308.192 166.584 317.958 167.914 327.954C169.432 339.804 169.298 351.809 167.514 363.621C165.476 379.873 160.988 395.718 154.206 410.612C149.15 421.817 142.351 432.141 134.065 441.197C127.994 448.076 120.619 453.669 112.372 457.648C106.578 460.637 100.46 462.941 94.1388 464.514C89.6043 465.384 85.0292 466.024 80.4307 466.431C74.9882 467.184 69.4605 467.048 64.0609 466.03C58.1103 465.155 52.3325 463.35 46.937 460.68C40.8461 457.923 35.5052 453.733 31.3657 448.464C26.145 442.203 21.9245 435.163 18.8555 427.599C15.8584 420.471 13.8147 412.975 12.7778 405.307C11.2889 396.75 11.9445 387.955 14.6854 379.716C16.6535 377.485 18.8216 375.44 21.1623 373.608C23.324 371.95 25.6078 370.46 27.9942 369.149C30.5745 367.601 33.2406 366.202 35.9794 364.959C39.2623 363.948 42.5599 363.056 45.8723 362.284C48.8006 361.76 51.7705 361.506 54.7448 361.526C57.8385 361.246 60.9559 361.641 63.8835 362.685C60.5561 366.276 57.8563 370.406 55.8982 374.901C55.0215 376.629 54.2655 378.417 53.6357 380.251C52.56 385.919 52.1727 391.698 52.4823 397.46C52.8442 404.091 54.1438 410.636 56.3418 416.899C58.6829 422.966 62.3169 428.444 66.9889 432.949C71.9544 437.666 78.5682 440.229 85.3993 440.082C103.913 440.588 119.632 426.068 132.557 396.524C136.744 387.865 138.957 378.376 139.034 368.748C139.324 359.573 138.171 350.41 135.618 341.597C133.449 333.21 130.261 325.124 126.124 317.521C122.8 310.673 118.85 304.151 114.324 298.038C109.708 292.028 104.761 286.283 99.5066 280.829C93.9169 274.468 88.4012 267.602 82.9594 260.231C77.2474 252.633 72.1586 244.581 67.743 236.156C63.3165 227.265 60.3218 217.724 58.8705 207.89C56.7243 194.789 58.0399 181.352 62.6857 168.923C67.2099 157.505 73.6468 146.949 81.7172 137.715C89.3415 129.19 98.1761 121.844 107.936 115.913C115.814 111.029 124.407 107.419 133.4 105.213C174.213 97.0691 200.964 103.95 213.651 125.855C218.886 133.839 221.945 143.063 222.524 152.606C223.018 161.397 222.331 170.214 220.483 178.821C219.247 185.782 217.207 192.575 214.406 199.062C213.399 202.249 211.902 205.258 209.969 207.979C207.784 209.877 205.351 211.467 202.738 212.705C197.657 215.059 192.286 216.724 186.768 217.654C184.78 218.155 182.739 218.41 180.69 218.411C178.776 218.397 176.865 218.263 174.967 218.01C173.07 217.889 171.209 217.436 169.466 216.673ZM279.352 379.092C288.673 378.596 297.654 375.407 305.216 369.907C315.101 363.304 324.394 355.845 332.987 347.616C341.735 339.6 349.987 331.053 357.697 322.024C365.298 313.108 371.006 305.974 374.821 300.624C376.255 298.014 378.543 295.982 381.298 294.873C382.016 294.488 382.842 294.354 383.644 294.491C384.447 294.629 385.182 295.029 385.734 295.631C386.935 297.472 387.38 299.709 386.976 301.872C386.516 305.064 385.349 308.112 383.56 310.789C381.786 313.761 378.739 318.22 374.421 324.164C370.103 330.109 365.164 336.351 359.604 342.89C353.5 350.045 347.045 356.89 340.262 363.398C333.197 370.253 325.699 376.641 317.815 382.525C310.216 387.988 302.05 392.607 293.46 396.301C285.731 399.982 277.302 401.944 268.75 402.052C258.953 402.366 249.243 400.107 240.58 395.499C233.501 391.611 227.425 386.115 222.835 379.448C218.507 372.793 215.411 365.408 213.696 357.647C211.949 349.742 211.056 341.67 211.034 333.572C211.4 323.558 213.193 313.649 216.358 304.146C219.96 292.322 225.17 281.055 231.84 270.664C238.884 259.759 247.915 250.29 258.458 242.754C269.308 234.776 282.457 230.58 295.9 230.806C299.715 230.724 303.506 231.43 307.039 232.879C310.572 234.329 313.771 236.491 316.44 239.232C319.405 242.214 321.69 245.808 323.138 249.764C324.585 253.721 325.161 257.946 324.824 262.148C324.798 266.821 324.019 271.458 322.517 275.88C321.059 280.102 319.013 284.095 316.44 287.739C313.959 291.002 310.851 293.731 307.301 295.764C303.982 297.818 300.152 298.885 296.255 298.841C294.807 298.935 293.359 298.672 292.036 298.073C290.714 297.475 289.558 296.56 288.669 295.408C287.124 292.82 286.085 289.96 285.608 286.981C285.354 283.806 285.354 280.616 285.608 277.44C285.857 275.35 286.363 273.298 287.116 271.333C288.174 269.731 289.605 268.415 291.286 267.498L296.609 264.823C298.096 264.092 299.298 262.884 300.025 261.39C301.004 259.927 301.529 258.205 301.534 256.442C301.548 254.827 301.016 253.255 300.025 251.983C299.407 251.304 298.641 250.777 297.787 250.445C296.933 250.112 296.013 249.983 295.101 250.066C290.574 250.977 286.303 252.88 282.591 255.639C275.707 260.147 269.557 265.697 264.358 272.09C257.617 280.293 252.103 289.44 247.988 299.242C242.992 311.38 240.472 324.404 240.58 337.54C240.084 344.595 241.255 351.668 243.995 358.182C246.028 362.838 249.077 366.975 252.917 370.286C256.756 373.597 261.288 375.997 266.177 377.308C270.469 378.493 274.901 379.093 279.352 379.092ZM341.726 390.149C340.395 392.533 338.323 394.413 335.826 395.499C334.964 395.996 334.002 396.291 333.011 396.361C332.019 396.43 331.025 396.273 330.103 395.9C329.234 395.646 328.453 395.152 327.849 394.474C327.245 393.797 326.842 392.962 326.687 392.066C326.287 389.425 326.821 386.727 328.196 384.442C328.965 382.926 330.739 379.493 333.519 374.143C336.299 368.793 339.464 362.417 343.013 355.016C346.562 347.378 350.495 339.219 354.813 330.54L366.968 305.305C371.02 297.399 374.702 290.4 378.015 284.306C381.327 278.213 383.811 273.666 385.468 270.664C382.688 268.108 380.78 266.324 379.745 265.314C378.396 262.99 377.62 260.376 377.482 257.69C377.149 253.243 377.927 248.783 379.745 244.716C381.795 239.319 384.476 234.186 387.73 229.424C390.8 224.608 394.517 220.242 398.776 216.45C401.926 213.276 406.125 211.372 410.577 211.1C413.433 210.8 416.316 211.279 418.924 212.488C421.531 213.696 423.767 215.588 425.394 217.966C428.294 222.167 430.122 227.021 430.718 232.099C431.179 236.317 430.924 240.584 429.963 244.716C429.013 249.653 427.065 254.342 424.241 258.492L427.302 260.409C429.268 261.014 431.325 261.271 433.379 261.167C436.195 261.304 439.017 261.049 441.764 260.409C444.382 259.811 447.066 259.556 449.749 259.652C453.59 259.497 457.362 260.713 460.396 263.084C463.249 265.205 465.585 267.949 467.228 271.11C469.059 274.306 470.348 277.787 471.043 281.408C471.998 284.653 472.637 287.982 472.951 291.351C473.583 298.347 471.848 305.353 468.026 311.235C463.975 318.101 459.036 325.621 453.209 333.795C449.631 338.758 445.993 344.465 442.296 350.915C439.103 356.061 437.555 362.067 437.86 368.124C438.201 370.952 439.106 373.681 440.522 376.149C441.793 378.2 445.342 379.225 451.169 379.225C456.171 379.042 461.03 377.502 465.232 374.767C470.91 371.186 476.255 367.098 481.202 362.551C486.792 357.469 492.248 351.985 497.572 346.1C502.895 340.215 507.834 334.359 512.389 328.534C516.944 322.589 520.744 317.373 523.79 312.885C526.836 308.397 529.247 304.978 531.021 302.63C532.148 300.717 533.882 299.241 535.945 298.44C536.782 298.06 537.689 297.864 538.607 297.864C539.525 297.864 540.432 298.06 541.269 298.44C542.053 298.894 542.709 299.542 543.175 300.322C543.641 301.102 543.901 301.989 543.931 302.898C544.2 306.184 543.253 309.455 541.269 312.082C539.761 314.638 537.099 318.71 533.284 324.298C529.469 329.886 525.032 336.128 519.975 343.023C514.918 349.889 509.21 357.023 502.851 364.424C496.585 371.494 489.856 378.137 482.71 384.308C476.282 389.888 469.277 394.761 461.816 398.842C455.906 402.419 449.19 404.429 442.296 404.683C436.596 404.901 430.943 403.577 425.926 400.849C421.834 398.488 418.222 395.372 415.279 391.664C410.183 384.444 407.765 375.657 408.448 366.831C408.748 363.559 409.51 360.347 410.71 357.29C412.218 353.723 413.86 350.157 415.634 346.59C417.409 343.023 419.435 339.323 421.712 335.489C423.989 331.654 426.015 327.954 427.79 324.387C432.108 316.986 435.523 310.745 438.037 305.662C440.442 301.59 441.87 297.01 442.207 292.287C442.248 290.153 441.728 288.046 440.699 286.179C440.214 285.31 439.494 284.598 438.623 284.124C437.751 283.651 436.763 283.436 435.775 283.504C434.623 283.465 433.471 283.601 432.359 283.905H430.451C429.554 283.964 428.664 284.098 427.79 284.306H422.732C419.863 284.396 417.006 283.879 414.348 282.791C412.258 281.847 410.091 281.087 407.871 280.517C406.865 282.3 404.588 286.119 401.039 291.975L388.529 312.573C383.945 320.479 378.991 328.801 373.667 337.54C368.344 346.278 363.523 354.437 359.205 362.016C354.65 369.417 350.85 375.792 347.804 381.143C344.758 386.493 342.732 389.495 341.726 390.149ZM598.053 166.962C597.176 170.051 595.665 172.921 593.617 175.388C591.583 177.946 589.139 180.146 586.386 181.897C583.932 183.402 581.226 184.444 578.4 184.974C577.223 185.269 575.993 185.286 574.807 185.023C573.622 184.76 572.513 184.224 571.569 183.458C569.308 182.047 567.385 180.154 565.936 177.911C564.486 175.669 563.547 173.133 563.184 170.484C562.885 165.774 564.081 161.091 566.6 157.109C569 152.925 572.232 149.282 576.094 146.409C578.921 143.86 582.312 142.025 585.986 141.058C587.193 140.766 588.455 140.788 589.651 141.124C590.846 141.459 591.937 142.097 592.818 142.976C594.901 144.661 596.444 146.924 597.255 149.485C598.327 152.331 598.84 155.359 598.763 158.402C599.038 161.275 598.797 164.174 598.053 166.962ZM545.572 248.372C547.57 246.428 550.079 245.097 552.803 244.538C556.425 243.51 560.117 242.75 563.85 242.264C567.22 241.543 570.652 241.155 574.097 241.105C575.994 240.809 577.924 240.809 579.82 241.105C579.566 243.857 578.924 246.559 577.913 249.13C576.404 254.212 574.497 260.157 572.19 266.963C569.883 273.77 567.472 280.948 564.959 288.497C562.415 295.631 560.508 301.486 559.236 306.063C557.964 310.641 556.485 315.857 554.8 321.712C553.025 327.33 551.384 332.933 549.875 338.52C548.664 343.555 547.775 348.663 547.214 353.813C546.572 357.549 546.971 361.391 548.367 364.914C549.233 367.381 550.661 369.61 552.537 371.423C553.993 372.407 555.707 372.934 557.461 372.939C564.507 372.13 571.143 369.192 576.493 364.513C584.834 358.492 592.708 351.845 600.049 344.628C608.153 336.722 615.635 328.831 622.497 320.954C629.358 313.078 634.356 306.598 637.491 301.516C639.044 299.353 641.142 297.645 643.569 296.567C644.415 296.166 645.35 295.992 646.284 296.062C647.217 296.132 648.115 296.445 648.893 296.968C649.663 297.527 650.276 298.276 650.672 299.143C651.069 300.01 651.235 300.966 651.155 301.917C651.271 304.766 650.479 307.578 648.893 309.942C643.609 318.898 637.678 327.451 631.148 335.533C623.281 345.223 614.911 354.645 606.038 363.799C597.88 372.044 589.116 379.659 579.82 386.582C571.45 392.942 564.604 396.256 559.28 396.524C554.861 396.761 550.446 395.983 546.371 394.25C542.259 392.684 538.414 390.488 534.97 387.741C531.716 384.797 528.893 381.404 526.585 377.665C524.365 373.81 523.06 369.492 522.77 365.048C521.996 356.401 521.996 347.702 522.77 339.055C523.55 327.649 524.942 316.293 526.94 305.038C528.846 293.817 531.379 282.713 534.526 271.778C536.803 263.382 540.543 255.457 545.572 248.372ZM708.471 173.07C704.656 188.347 700.353 203 695.562 217.029C690.771 231.058 685.95 244.047 681.1 255.996C676.279 267.885 671.34 278.837 666.283 288.854C661.225 298.87 656.907 307.535 653.329 314.846C650.76 329.506 650.76 344.503 653.329 359.163C655.872 370.368 660.811 375.971 668.146 375.971C674.929 375.6 681.299 372.576 685.891 367.545C692.067 361.474 697.314 354.517 701.462 346.902C706.089 338.653 709.922 329.98 712.908 320.999C715.899 312.852 717.938 304.384 718.985 295.764C714.46 294.639 710.284 292.402 706.83 289.255C703.983 286.187 702.246 282.244 701.9 278.063C701.554 273.881 702.618 269.704 704.922 266.205C708.702 259.911 714.462 255.063 721.292 252.429C724.196 251.232 727.294 250.582 730.431 250.512C734.749 250.512 738.431 253.321 741.477 258.938C744.824 265.352 746.874 272.367 747.511 279.581C758.288 279.276 769 277.781 779.452 275.122C790.257 272.442 800.823 268.863 811.038 264.422C813.112 263.25 815.527 262.84 817.87 263.263C818.655 263.436 819.382 263.81 819.98 264.349C820.579 264.888 821.029 265.574 821.285 266.339C821.663 267.18 821.858 268.092 821.858 269.014C821.858 269.937 821.663 270.848 821.285 271.689C820.389 273.601 818.803 275.099 816.849 275.88C810.928 279.245 804.842 282.31 798.616 285.064C787.106 289.888 775.121 293.475 762.86 295.764C757.843 296.725 752.751 297.232 747.644 297.28C746.261 308.804 743.056 320.032 738.15 330.54C732.883 342.162 726.383 353.178 718.764 363.398C711.577 372.925 702.991 381.299 693.3 388.231C685.579 394.355 676.113 397.838 666.283 398.174C662.576 398.08 658.882 397.692 655.236 397.014C650.042 395.885 645.364 393.064 641.928 388.989C636.681 382.637 632.907 375.189 630.881 367.188C627.444 353.064 626.158 338.498 627.066 323.986C627.404 310.64 628.798 297.341 631.236 284.217C633.78 270.218 636.826 256.204 640.375 242.175C643.924 228.146 647.857 214.637 652.175 201.648C656.73 188.392 661.048 176.503 665.129 165.981C669.211 155.459 672.893 146.542 676.176 139.231C678.358 134.374 681.034 129.758 684.161 125.454C686.275 122.782 689.02 120.682 692.146 119.346C694.942 117.898 697.93 116.862 701.019 116.27C703.749 115.534 706.586 115.277 709.403 115.512C711.228 115.606 713.026 115.997 714.727 116.671C716.235 117.682 716.619 123.284 715.88 133.479C714.771 146.897 712.288 160.164 708.471 173.07ZM955.127 312.573C947.263 324.106 938.622 335.085 929.264 345.431C919.813 355.708 909.513 365.164 898.476 373.697C888.254 381.599 877.147 388.273 865.382 393.581C855.16 398.473 844.007 401.088 832.687 401.25C826.392 401.089 820.192 399.664 814.454 397.059C807.818 394.304 801.854 390.136 796.975 384.843C791.174 378.552 786.72 371.132 783.888 363.042C780.698 352.524 779.79 341.44 781.226 330.54C782.514 319.125 785.724 308.014 790.72 297.682C796.136 286.213 802.897 275.436 810.86 265.581C818.604 256.23 827.713 248.113 837.877 241.506C846.912 235.482 857.469 232.172 868.31 231.965C877.951 231.965 884.916 234.387 889.205 239.232C891.334 241.645 892.942 244.476 893.927 247.546C894.912 250.615 895.253 253.857 894.927 257.066C894.239 264.743 891.909 272.179 888.096 278.867C884.587 285.365 880.231 291.363 875.142 296.701C870.115 302.014 864.638 306.877 858.772 311.235C853.182 315.575 847.859 319.528 842.801 323.094C837.212 326.929 831.888 330.629 826.831 334.196C821.773 337.762 817.337 340.824 813.522 343.38C813.589 348.905 814.75 354.361 816.938 359.43C818.746 363.461 821.323 367.097 824.524 370.13C827.55 372.678 831.027 374.629 834.772 375.882C838.746 376.886 842.829 377.395 846.927 377.398C856.475 377.135 865.788 374.368 873.944 369.372C883.619 363.547 892.777 356.894 901.316 349.488C910.173 341.85 918.559 333.676 926.425 325.011C934.292 316.6 940.754 309.333 945.811 303.21C947.12 301.462 949.009 300.244 951.135 299.777C951.874 299.494 952.676 299.415 953.456 299.549C954.236 299.682 954.966 300.022 955.571 300.535C956.246 301.048 956.778 301.729 957.112 302.51C957.446 303.292 957.573 304.148 957.479 304.993C957.427 307.693 956.611 310.322 955.127 312.573ZM857.796 253.722C853.755 254.074 849.91 255.626 846.75 258.18C842.025 261.971 837.923 266.484 834.594 271.555C830.022 278.103 826.197 285.147 823.193 292.554C819.385 301.611 816.703 311.104 815.208 320.821C818.165 318.532 821.463 316.243 825.101 313.955C828.738 311.666 832.287 308.991 835.748 305.93C844.423 299.696 852.111 292.181 858.55 283.638C862.214 278.802 864.691 273.165 865.781 267.186C866.524 263.683 865.988 260.027 864.273 256.887C863.556 255.843 862.583 255.003 861.449 254.449C860.314 253.894 859.055 253.644 857.796 253.722Z" fill="white"/>
</g>
<g filter="url(#filter2_d_255_6470)">
<path d="M941.395 330.852C973.425 294.828 984.747 252.445 983.993 205.499C982.972 141.476 945.721 92.9523 895.059 56.3044C839.163 15.8668 774.304 2.80377 706.385 6.63798C638.466 10.4722 570.325 22.4652 509.416 53.451C506.31 55.0115 512.255 74.3163 509.416 75.743C560.61 49.706 616.285 37.7575 673.069 31.7387C731.273 25.5861 790.186 25.9874 844.752 49.5722C892.708 70.4375 941.951 108.2 965.463 156.217C991.193 208.781 977.305 267.899 939.154 310.789C940.707 309.018 925.286 326.393 920.85 330.852H941.395Z" fill="white"/>
</g>
<path d="M907.718 366.2L922.671 352.7L936.401 337.822L948.094 322.7L934.265 316.365L921.177 330.2L904.726 346.7L907.718 366.2Z" fill="white"/>
<defs>
<filter id="filter0_d_255_6470" x="238.756" y="2.3895" width="256.944" height="139.428" filterUnits="userSpaceOnUse" color-interpolation-filters="sRGB">
<feFlood flood-opacity="0" result="BackgroundImageFix"/>
<feColorMatrix in="SourceAlpha" type="matrix" values="0 0 0 0 0 0 0 0 0 0 0 0 0 0 0 0 0 0 127 0" result="hardAlpha"/>
<feOffset dy="6"/>
<feGaussianBlur stdDeviation="3"/>
<feComposite in2="hardAlpha" operator="out"/>
<feColorMatrix type="matrix" values="0 0 0 0 0 0 0 0 0 0 0 0 0 0 0 0 0 0 0.25 0"/>
<feBlend mode="normal" in2="BackgroundImageFix" result="effect1_dropShadow_255_6470"/>
<feBlend mode="normal" in="SourceGraphic" in2="effect1_dropShadow_255_6470" result="shape"/>
</filter>
<filter id="filter1_d_255_6470" x="0" y="95.9023" width="969.509" height="389.008" filterUnits="userSpaceOnUse" color-interpolation-filters="sRGB">
<feFlood flood-opacity="0" result="BackgroundImageFix"/>
<feColorMatrix in="SourceAlpha" type="matrix" values="0 0 0 0 0 0 0 0 0 0 0 0 0 0 0 0 0 0 127 0" result="hardAlpha"/>
<feOffset dy="6"/>
<feGaussianBlur stdDeviation="6"/>
<feComposite in2="hardAlpha" operator="out"/>
<feColorMatrix type="matrix" values="0 0 0 0 0 0 0 0 0 0 0 0 0 0 0 0 0 0 0.25 0"/>
<feBlend mode="normal" in2="BackgroundImageFix" result="effect1_dropShadow_255_6470"/>
<feBlend mode="normal" in="SourceGraphic" in2="effect1_dropShadow_255_6470" result="shape"/>
</filter>
<filter id="filter2_d_255_6470" x="496.49" y="0" width="499.538" height="348.852" filterUnits="userSpaceOnUse" color-interpolation-filters="sRGB">
<feFlood flood-opacity="0" result="BackgroundImageFix"/>
<feColorMatrix in="SourceAlpha" type="matrix" values="0 0 0 0 0 0 0 0 0 0 0 0 0 0 0 0 0 0 127 0" result="hardAlpha"/>
<feOffset dy="6"/>
<feGaussianBlur stdDeviation="6"/>
<feComposite in2="hardAlpha" operator="out"/>
<feColorMatrix type="matrix" values="0 0 0 0 0 0 0 0 0 0 0 0 0 0 0 0 0 0 0.25 0"/>
<feBlend mode="normal" in2="BackgroundImageFix" result="effect1_dropShadow_255_6470"/>
<feBlend mode="normal" in="SourceGraphic" in2="effect1_dropShadow_255_6470" result="shape"/>
</filter>
</defs>
</svg>
