<svg width="831" height="405" viewBox="0 0 831 405" fill="none" xmlns="http://www.w3.org/2000/svg">
<g filter="url(#filter0_d_273_6461)">
<path d="M234.961 38.5728H347.165M208.971 55.0693V102.59C208.971 102.747 209.033 102.899 209.144 103.01C209.255 103.122 209.405 103.184 209.562 103.184H359.623C359.706 103.186 359.788 103.171 359.865 103.139C359.941 103.107 360.01 103.059 360.067 102.999L402.952 55.5152C403.046 55.407 403.097 55.2684 403.097 55.125C403.097 54.9817 403.046 54.8431 402.952 54.7349L359.993 7.17727C359.936 7.11683 359.867 7.06906 359.791 7.03706C359.714 7.00506 359.632 6.98954 359.549 6.9915H209.562C209.405 6.9915 209.255 7.05413 209.144 7.16561C209.033 7.2771 208.971 7.42831 208.971 7.58597V55.0693Z" stroke="white" stroke-opacity="0.95" stroke-width="10" shape-rendering="crispEdges"/>
</g>
<g filter="url(#filter1_d_273_6461)">
<path d="M141.226 180.566C141.004 179.922 141.633 178.325 143.112 175.773C144.59 173.222 146.18 169.928 147.881 165.89C149.917 161.532 151.719 157.067 153.278 152.515C155.129 147.481 156.371 142.242 156.975 136.91C157.822 131.631 157.822 126.25 156.975 120.971C156.063 115.428 153.831 110.189 150.469 105.7C149.269 104.372 147.8 103.318 146.161 102.606C144.523 101.895 142.752 101.544 140.967 101.576C136.241 101.239 131.497 101.884 127.03 103.471C121.357 105.26 115.929 107.757 110.874 110.902C105.37 114.104 100.269 117.959 95.6792 122.383C91.0482 126.606 86.9954 131.429 83.627 136.724C80.5847 141.636 78.7357 147.198 78.2293 152.961C77.8041 157.094 77.9159 161.266 78.5621 165.37C79.3382 168.955 80.4014 172.472 81.7415 175.885C82.9205 178.893 84.2658 181.833 85.7712 184.691C87.25 187.44 88.6179 189.917 89.8749 192.121C92.0749 195.746 94.7344 199.068 97.7865 202.004C101.385 205.621 105.291 209.757 109.506 214.414C114.041 219.238 118.275 224.338 122.187 229.685C126.59 235.728 130.309 242.246 133.278 249.116C136.585 256.835 138.824 264.974 139.932 273.304C141.198 283.179 141.086 293.183 139.6 303.027C137.901 316.571 134.161 329.776 128.509 342.188C124.295 351.525 118.629 360.129 111.724 367.676C106.665 373.408 100.519 378.069 93.6458 381.386C88.8179 383.877 83.719 385.797 78.4512 387.108C74.6724 387.833 70.8596 388.366 67.0274 388.705C62.4918 389.332 57.8853 389.219 53.3855 388.371C48.4265 387.642 43.6115 386.137 39.1151 383.912C34.0392 381.615 29.5883 378.123 26.1386 373.732C21.7879 368.514 18.2707 362.648 15.7131 356.344C13.2154 350.404 11.5123 344.157 10.6482 337.767C9.40738 330.635 9.95373 323.306 12.2379 316.44C13.8781 314.581 15.6849 312.877 17.6355 311.35C19.4369 309.968 21.3402 308.726 23.3289 307.634C25.4793 306.344 27.7011 305.178 29.9835 304.142C32.7193 303.3 35.4674 302.557 38.2278 301.913C40.6682 301.476 43.1431 301.265 45.6218 301.281C48.2 301.048 50.7979 301.377 53.2376 302.247C50.4647 305.24 48.2148 308.681 46.583 312.427C45.8524 313.868 45.2224 315.358 44.6976 316.886C43.8011 321.61 43.4784 326.426 43.7363 331.228C44.0379 336.753 45.1209 342.208 46.9527 347.427C48.9037 352.483 51.9321 357.048 55.8255 360.802C59.9636 364.733 65.4753 366.869 71.1681 366.747C86.5969 367.168 99.6966 355.068 110.467 330.447C113.957 323.231 115.801 315.323 115.865 307.3C116.107 299.654 115.146 292.018 113.018 284.673C111.211 277.684 108.554 270.946 105.107 264.61C102.336 258.903 99.0442 253.467 95.2725 248.373C91.4261 243.365 87.3037 238.577 82.9245 234.032C78.2663 228.731 73.6697 223.009 69.1347 216.866C64.3746 210.534 60.1338 203.824 56.454 196.803C52.7651 189.393 50.2694 181.443 49.06 173.247C47.2715 162.33 48.3679 151.132 52.2394 140.774C56.0097 131.258 61.374 122.462 68.0996 114.766C74.4533 107.662 81.8158 101.54 89.9488 96.5974C96.5146 92.5275 103.675 89.5185 111.17 87.6803C145.182 80.8934 167.475 86.6276 178.048 104.883C182.411 111.536 184.96 119.223 185.442 127.175C185.854 134.501 185.282 141.85 183.742 149.022C182.711 154.824 181.012 160.485 178.677 165.89C177.838 168.546 176.591 171.054 174.98 173.321C173.159 174.903 171.131 176.228 168.954 177.26C164.719 179.222 160.243 180.609 155.645 181.384C153.988 181.802 152.287 182.014 150.58 182.015C148.985 182.004 147.392 181.892 145.811 181.681C144.23 181.58 142.678 181.203 141.226 180.566ZM232.801 315.92C240.569 315.507 248.053 312.849 254.354 308.266C262.593 302.763 270.336 296.547 277.498 289.689C284.788 283.009 291.665 275.887 298.09 268.362C304.424 260.931 309.181 254.987 312.36 250.528C313.556 248.353 315.463 246.659 317.758 245.735C318.357 245.415 319.045 245.303 319.714 245.417C320.383 245.532 320.995 245.866 321.455 246.367C322.456 247.901 322.827 249.765 322.49 251.568C322.107 254.228 321.134 256.768 319.643 258.999C318.165 261.476 315.626 265.192 312.028 270.146C308.429 275.1 304.313 280.301 299.68 285.751C294.593 291.713 289.213 297.418 283.561 302.842C277.673 308.554 271.424 313.878 264.854 318.781C258.521 323.334 251.716 327.183 244.557 330.262C238.116 333.329 231.092 334.964 223.965 335.054C215.8 335.316 207.709 333.433 200.489 329.593C194.59 326.353 189.526 321.773 185.701 316.217C182.095 310.671 179.515 304.516 178.085 298.049C176.629 291.461 175.885 284.734 175.867 277.985C176.172 269.64 177.666 261.382 180.304 253.463C183.306 243.61 187.648 234.22 193.206 225.56C199.076 216.473 206.602 208.581 215.388 202.302C224.431 195.653 235.388 192.156 246.591 192.344C249.77 192.276 252.929 192.864 255.874 194.072C258.818 195.28 261.484 197.082 263.708 199.366C266.179 201.851 268.083 204.846 269.29 208.143C270.496 211.441 270.976 214.962 270.695 218.464C270.674 222.358 270.024 226.222 268.773 229.907C267.557 233.426 265.852 236.753 263.708 239.791C261.64 242.51 259.05 244.784 256.092 246.478C253.326 248.19 250.134 249.079 246.886 249.042C245.68 249.121 244.473 248.901 243.371 248.402C242.269 247.904 241.305 247.141 240.565 246.181C239.278 244.025 238.412 241.641 238.014 239.159C237.802 236.513 237.802 233.854 238.014 231.208C238.221 229.465 238.643 227.756 239.271 226.118C240.152 224.783 241.345 223.686 242.746 222.922L247.182 220.693C248.421 220.084 249.422 219.077 250.029 217.832C250.844 216.613 251.282 215.177 251.286 213.708C251.297 212.362 250.854 211.052 250.029 209.993C249.514 209.427 248.875 208.988 248.163 208.711C247.451 208.434 246.686 208.326 245.925 208.395C242.153 209.154 238.593 210.74 235.5 213.039C229.763 216.796 224.638 221.421 220.305 226.749C214.688 233.585 210.092 241.208 206.663 249.376C202.499 259.492 200.4 270.345 200.489 281.292C200.077 287.171 201.052 293.066 203.336 298.494C205.03 302.375 207.571 305.822 210.77 308.582C213.97 311.341 217.747 313.341 221.821 314.434C225.398 315.421 229.091 315.921 232.801 315.92ZM284.781 325.134C283.672 327.121 281.944 328.688 279.864 329.593C279.146 330.008 278.344 330.253 277.517 330.311C276.691 330.369 275.863 330.238 275.095 329.927C274.37 329.716 273.719 329.304 273.216 328.739C272.713 328.174 272.377 327.479 272.248 326.732C271.914 324.531 272.359 322.283 273.505 320.378C274.146 319.115 275.624 316.254 277.941 311.796C280.258 307.337 282.895 302.024 285.853 295.857C288.81 289.491 292.088 282.691 295.687 275.459L305.817 254.429C309.193 247.841 312.262 242.007 315.022 236.93C317.783 231.852 319.853 228.062 321.233 225.56C318.916 223.43 317.327 221.944 316.464 221.102C315.34 219.166 314.693 216.987 314.579 214.748C314.301 211.043 314.949 207.326 316.464 203.936C318.173 199.439 320.407 195.161 323.119 191.193C325.677 187.18 328.775 183.541 332.324 180.381C334.949 177.736 338.448 176.149 342.158 175.922C344.538 175.672 346.941 176.072 349.114 177.079C351.287 178.086 353.15 179.663 354.506 181.644C356.923 185.145 358.446 189.19 358.943 193.422C359.327 196.937 359.115 200.493 358.314 203.936C357.522 208.051 355.899 211.958 353.545 215.417L356.096 217.015C357.735 217.519 359.449 217.733 361.161 217.646C363.508 217.76 365.859 217.548 368.148 217.015C370.33 216.516 372.567 216.304 374.803 216.383C378.004 216.254 381.147 217.268 383.675 219.244C386.053 221.011 388 223.298 389.369 225.932C390.895 228.596 391.969 231.496 392.548 234.515C393.344 237.218 393.876 239.993 394.138 242.8C394.665 248.63 393.219 254.469 390.034 259.371C386.658 265.093 382.542 271.359 377.686 278.171C374.704 282.308 371.673 287.063 368.592 292.438C365.931 296.727 364.641 301.732 364.895 306.78C365.179 309.136 365.934 311.411 367.113 313.468C368.173 315.177 371.13 316.031 375.986 316.031C380.154 315.879 384.204 314.595 387.705 312.316C392.437 309.332 396.892 305.924 401.014 302.136C405.673 297.9 410.22 293.33 414.656 288.426C419.093 283.521 423.209 278.642 427.004 273.787C430.8 268.833 433.967 264.486 436.506 260.746C439.044 257.005 441.053 254.157 442.532 252.2C443.471 250.606 444.916 249.376 446.635 248.708C447.333 248.392 448.089 248.228 448.854 248.228C449.618 248.228 450.375 248.392 451.072 248.708C451.725 249.086 452.272 249.626 452.66 250.276C453.048 250.926 453.265 251.665 453.29 252.423C453.515 255.162 452.725 257.888 451.072 260.077C449.815 262.207 447.597 265.6 444.417 270.257C441.238 274.914 437.541 280.115 433.326 285.862C429.112 291.584 424.355 297.528 419.056 303.696C413.834 309.589 408.227 315.125 402.271 320.267C396.914 324.917 391.076 328.978 384.859 332.379C379.934 335.36 374.337 337.035 368.592 337.247C363.842 337.428 359.13 336.325 354.95 334.051C351.539 332.084 348.529 329.487 346.077 326.397C341.83 320.38 339.815 313.058 340.384 305.702C340.634 302.976 341.269 300.299 342.269 297.751C343.526 294.779 344.894 291.807 346.373 288.834C347.852 285.862 349.54 282.778 351.438 279.583C353.335 276.388 355.024 273.304 356.503 270.331C360.101 264.164 362.948 258.962 365.043 254.727C367.046 251.333 368.236 247.516 368.518 243.58C368.552 241.802 368.118 240.046 367.261 238.49C366.857 237.766 366.257 237.173 365.53 236.778C364.804 236.383 363.981 236.204 363.157 236.261C362.197 236.229 361.237 236.341 360.31 236.595H358.721C357.973 236.644 357.231 236.756 356.503 236.93H352.288C349.897 237.004 347.516 236.574 345.301 235.666C343.559 234.88 341.753 234.246 339.903 233.771C339.065 235.258 337.167 238.441 334.21 243.32L323.784 260.486C319.964 267.074 315.836 274.01 311.399 281.292C306.963 288.574 302.945 295.373 299.347 301.69C295.551 307.857 292.384 313.17 289.846 317.629C287.307 322.088 285.619 324.589 284.781 325.134ZM498.393 139.139C497.662 141.714 496.403 144.106 494.696 146.161C493.001 148.293 490.965 150.127 488.67 151.586C486.626 152.84 484.37 153.709 482.016 154.15C481.034 154.396 480.009 154.41 479.021 154.19C478.033 153.971 477.11 153.525 476.322 152.886C474.438 151.711 472.836 150.133 471.628 148.264C470.42 146.395 469.637 144.282 469.335 142.074C469.086 138.15 470.083 134.247 472.182 130.928C474.182 127.441 476.875 124.406 480.093 122.011C482.449 119.887 485.276 118.358 488.338 117.552C489.343 117.308 490.395 117.327 491.391 117.607C492.388 117.886 493.296 118.418 494.031 119.15C495.766 120.554 497.052 122.441 497.728 124.575C498.622 126.946 499.049 129.47 498.985 132.006C499.214 134.4 499.014 136.816 498.393 139.139ZM454.658 206.983C456.323 205.363 458.413 204.254 460.684 203.788C463.702 202.932 466.779 202.299 469.89 201.893C472.698 201.292 475.558 200.969 478.43 200.927C480.01 200.681 481.618 200.681 483.199 200.927C482.987 203.221 482.452 205.473 481.609 207.615C480.352 211.85 478.762 216.804 476.84 222.477C474.917 228.149 472.909 234.131 470.814 240.422C468.694 246.367 467.104 251.246 466.045 255.061C464.985 258.876 463.752 263.223 462.348 268.102C460.869 272.784 459.501 277.453 458.244 282.109C457.234 286.305 456.494 290.562 456.026 294.853C455.491 297.967 455.824 301.169 456.987 304.105C457.708 306.161 458.898 308.018 460.462 309.529C461.676 310.349 463.104 310.789 464.566 310.793C470.438 310.119 475.968 307.67 480.426 303.77C487.377 298.753 493.939 293.214 500.057 287.2C506.81 280.611 513.046 274.034 518.764 267.471C524.482 260.907 528.647 255.507 531.26 251.271C532.554 249.469 534.302 248.046 536.325 247.147C537.03 246.813 537.809 246.668 538.587 246.726C539.364 246.785 540.113 247.045 540.761 247.481C541.403 247.947 541.914 248.571 542.244 249.294C542.574 250.017 542.713 250.813 542.646 251.606C542.743 253.98 542.083 256.323 540.761 258.293C536.358 265.757 531.415 272.885 525.973 279.62C519.417 287.695 512.442 295.547 505.048 303.176C498.249 310.046 490.945 316.393 483.199 322.162C476.224 327.463 470.518 330.224 466.082 330.447C462.399 330.645 458.72 329.997 455.323 328.552C451.897 327.247 448.692 325.417 445.822 323.128C443.11 320.674 440.758 317.847 438.835 314.731C436.985 311.518 435.897 307.92 435.655 304.216C435.011 297.01 435.011 289.761 435.655 282.555C436.305 273.05 437.465 263.586 439.13 254.206C440.719 244.856 442.83 235.602 445.452 226.489C447.35 219.492 450.467 212.888 454.658 206.983ZM590.412 144.229C587.232 156.961 583.646 169.172 579.653 180.864C575.661 192.555 571.643 203.379 567.601 213.337C563.584 223.244 559.468 232.372 555.253 240.719C551.039 249.067 547.44 256.287 544.458 262.38C542.317 274.597 542.317 287.095 544.458 299.312C546.578 308.65 550.694 313.319 556.806 313.319C562.459 313.01 567.767 310.49 571.594 306.297C576.74 301.238 581.113 295.441 584.57 289.094C588.426 282.22 591.62 274.992 594.109 267.508C596.601 260.719 598.301 253.661 599.174 246.478C595.402 245.54 591.922 243.676 589.044 241.054C586.671 238.497 585.223 235.211 584.935 231.726C584.647 228.242 585.534 224.761 587.454 221.845C590.604 216.599 595.404 212.559 601.096 210.364C603.516 209.367 606.097 208.825 608.712 208.767C612.31 208.767 615.379 211.107 617.917 215.789C620.706 221.133 622.415 226.98 622.945 232.991C631.927 232.738 640.853 231.492 649.564 229.276C658.569 227.042 667.373 224.06 675.886 220.359C677.615 219.382 679.628 219.041 681.58 219.393C682.234 219.537 682.84 219.849 683.339 220.298C683.838 220.747 684.212 221.319 684.426 221.956C684.741 222.657 684.903 223.417 684.903 224.186C684.903 224.954 684.741 225.714 684.426 226.415C683.679 228.008 682.358 229.256 680.729 229.907C675.795 232.712 670.723 235.266 665.535 237.561C655.943 241.581 645.955 244.57 635.737 246.478C631.556 247.278 627.312 247.701 623.056 247.742C621.904 257.345 619.233 266.702 615.145 275.459C610.755 285.144 605.339 294.325 598.989 302.842C593 310.781 585.844 317.759 577.768 323.537C571.334 328.64 563.445 331.543 555.253 331.822C552.164 331.744 549.086 331.421 546.048 330.856C541.719 329.915 537.82 327.564 534.957 324.168C530.584 318.874 527.439 312.668 525.751 306C522.887 294.229 521.815 282.09 522.572 269.997C522.853 258.875 524.015 247.792 526.047 236.855C528.167 225.189 530.705 213.51 533.663 201.819C536.62 190.127 539.898 178.87 543.497 168.045C547.292 156.998 550.891 147.09 554.292 138.322C557.693 129.553 560.762 122.122 563.498 116.029C565.317 111.982 567.547 108.135 570.152 104.548C571.914 102.321 574.202 100.572 576.807 99.4583C579.136 98.2517 581.627 97.3883 584.201 96.8946C586.476 96.281 588.84 96.0674 591.188 96.263C592.709 96.3412 594.208 96.6674 595.624 97.229C596.881 98.0712 597.202 102.74 596.586 111.236C595.662 122.418 593.593 133.474 590.412 144.229ZM795.965 260.486C789.411 270.097 782.21 279.246 774.411 287.868C766.535 296.433 757.952 304.313 748.754 311.424C740.235 318.01 730.979 323.571 721.175 327.995C712.656 332.071 703.362 334.251 693.928 334.386C688.682 334.252 683.515 333.064 678.733 330.893C673.203 328.597 668.233 325.124 664.167 320.713C659.333 315.47 655.621 309.287 653.261 302.544C650.602 293.779 649.846 284.543 651.042 275.459C652.116 265.946 654.791 256.687 658.954 248.076C663.468 238.518 669.102 229.537 675.738 221.325C682.191 213.532 689.783 206.767 698.253 201.261C705.783 196.241 714.58 193.483 723.615 193.31C731.649 193.31 737.454 195.329 741.027 199.366C742.802 201.378 744.142 203.737 744.963 206.295C745.784 208.853 746.068 211.554 745.797 214.228C745.223 220.626 743.281 226.823 740.103 232.397C737.18 237.812 733.549 242.81 729.308 247.259C725.119 251.686 720.554 255.739 715.666 259.371C711.008 262.987 706.571 266.282 702.357 269.254C697.699 272.449 693.262 275.533 689.048 278.505C684.833 281.478 681.136 284.029 677.957 286.159C678.012 290.763 678.98 295.311 680.803 299.535C682.31 302.894 684.458 305.924 687.125 308.452C689.647 310.575 692.544 312.201 695.665 313.245C698.978 314.082 702.38 314.506 705.795 314.508C713.752 314.289 721.513 311.984 728.31 307.82C736.373 302.966 744.005 297.421 751.12 291.249C758.502 284.885 765.49 278.073 772.045 270.852C778.601 263.842 783.987 257.786 788.201 252.683C789.292 251.227 790.866 250.212 792.638 249.822C793.254 249.587 793.922 249.521 794.572 249.632C795.222 249.743 795.83 250.027 796.335 250.454C796.897 250.881 797.34 251.449 797.619 252.1C797.898 252.751 798.003 253.465 797.924 254.169C797.881 256.419 797.201 258.61 795.965 260.486ZM714.853 211.442C711.486 211.735 708.281 213.029 705.647 215.157C701.71 218.316 698.292 222.077 695.517 226.303C691.707 231.76 688.52 237.63 686.016 243.803C682.842 251.35 680.607 259.262 679.362 267.359C681.826 265.452 684.574 263.545 687.606 261.637C690.637 259.73 693.595 257.501 696.479 254.95C703.708 249.755 710.115 243.492 715.481 236.372C718.535 232.342 720.599 227.645 721.507 222.662C722.126 219.743 721.68 216.696 720.25 214.08C719.653 213.21 718.842 212.51 717.897 212.047C716.951 211.585 715.902 211.376 714.853 211.442Z" fill="white" fill-opacity="0.95" shape-rendering="crispEdges"/>
</g>
<g filter="url(#filter2_d_273_6461)">
<path d="M784.52 275.718C811.212 245.698 820.647 210.378 820.019 171.254C819.169 117.9 788.125 77.4626 745.905 46.9217C699.323 13.2226 645.273 2.33639 588.672 5.53166C532.071 8.72694 475.285 18.7215 424.525 44.5438C421.937 45.8442 426.891 61.9321 424.525 63.121C467.188 41.4228 513.586 31.4654 560.907 26.4496C609.412 21.3223 658.508 21.6567 703.981 41.3114C743.946 58.6996 784.982 90.1694 804.577 130.185C826.019 173.99 814.446 223.256 782.652 258.999C783.946 257.523 771.095 272.003 767.398 275.718H784.52Z" fill="white" fill-opacity="0.95" shape-rendering="crispEdges"/>
</g>
<path d="M756.455 305.176L768.916 293.926L780.358 281.527L790.103 268.925L778.579 263.646L767.671 275.175L753.962 288.926L756.455 305.176Z" fill="white"/>
<defs>
<filter id="filter0_d_273_6461" x="198.971" y="1.99133" width="214.127" height="116.193" filterUnits="userSpaceOnUse" color-interpolation-filters="sRGB">
<feFlood flood-opacity="0" result="BackgroundImageFix"/>
<feColorMatrix in="SourceAlpha" type="matrix" values="0 0 0 0 0 0 0 0 0 0 0 0 0 0 0 0 0 0 127 0" result="hardAlpha"/>
<feOffset dy="5"/>
<feGaussianBlur stdDeviation="2.5"/>
<feComposite in2="hardAlpha" operator="out"/>
<feColorMatrix type="matrix" values="0 0 0 0 0 0 0 0 0 0 0 0 0 0 0 0 0 0 0.25 0"/>
<feBlend mode="normal" in2="BackgroundImageFix" result="effect1_dropShadow_273_6461"/>
<feBlend mode="normal" in="SourceGraphic" in2="effect1_dropShadow_273_6461" result="shape"/>
</filter>
<filter id="filter1_d_273_6461" x="0" y="79.9213" width="807.949" height="324.183" filterUnits="userSpaceOnUse" color-interpolation-filters="sRGB">
<feFlood flood-opacity="0" result="BackgroundImageFix"/>
<feColorMatrix in="SourceAlpha" type="matrix" values="0 0 0 0 0 0 0 0 0 0 0 0 0 0 0 0 0 0 127 0" result="hardAlpha"/>
<feOffset dy="5"/>
<feGaussianBlur stdDeviation="5"/>
<feComposite in2="hardAlpha" operator="out"/>
<feColorMatrix type="matrix" values="0 0 0 0 0 0 0 0 0 0 0 0 0 0 0 0 0 0 0.25 0"/>
<feBlend mode="normal" in2="BackgroundImageFix" result="effect1_dropShadow_273_6461"/>
<feBlend mode="normal" in="SourceGraphic" in2="effect1_dropShadow_273_6461" result="shape"/>
</filter>
<filter id="filter2_d_273_6461" x="413.754" y="0" width="416.295" height="290.718" filterUnits="userSpaceOnUse" color-interpolation-filters="sRGB">
<feFlood flood-opacity="0" result="BackgroundImageFix"/>
<feColorMatrix in="SourceAlpha" type="matrix" values="0 0 0 0 0 0 0 0 0 0 0 0 0 0 0 0 0 0 127 0" result="hardAlpha"/>
<feOffset dy="5"/>
<feGaussianBlur stdDeviation="5"/>
<feComposite in2="hardAlpha" operator="out"/>
<feColorMatrix type="matrix" values="0 0 0 0 0 0 0 0 0 0 0 0 0 0 0 0 0 0 0.25 0"/>
<feBlend mode="normal" in2="BackgroundImageFix" result="effect1_dropShadow_273_6461"/>
<feBlend mode="normal" in="SourceGraphic" in2="effect1_dropShadow_273_6461" result="shape"/>
</filter>
</defs>
</svg>
